<?xml version="1.0" encoding="utf-8"?>
<!-- Generator: Adobe Illustrator 26.0.0, SVG Export Plug-In . SVG Version: 6.00 Build 0)  -->
<svg version="1.1" id="Capa_1" xmlns="http://www.w3.org/2000/svg" xmlns:xlink="http://www.w3.org/1999/xlink" x="0px" y="0px"
	 viewBox="0 0 3000 3000" style="enable-background:new 0 0 3000 3000;" xml:space="preserve">
<style type="text/css">
	.st0{fill:#B2AD8D;}
	.st1{fill:none;stroke:#B2AD8D;stroke-width:6;stroke-miterlimit:100;}
	.st2{fill:none;stroke:#B2AD8D;stroke-width:3;stroke-miterlimit:100;}
</style>
<g id="Elipse_7">
	<g>
		<path class="st0" d="M2306.1,2579c-12.9,0-23.3,10.4-23.3,23.3c0,12.9,10.4,23.3,23.3,23.3c12.9,0,23.3-10.4,23.3-23.3
			C2329.4,2589.4,2319,2579,2306.1,2579z M2591.8,579c-12.9,0-23.3,10.4-23.3,23.3c0,12.9,10.4,23.3,23.3,23.3
			c12.9,0,23.3-10.4,23.3-23.3C2615.2,589.4,2604.7,579,2591.8,579z M314.9,1313.7c-14.5,0-26.2,11.7-26.2,26.2
			c0,14.5,11.7,26.2,26.2,26.2c14.5,0,26.2-11.7,26.2-26.2C341.1,1325.4,329.4,1313.7,314.9,1313.7z M107.9,870.5
			c-9.7,0-17.5,7.8-17.5,17.5s7.8,17.5,17.5,17.5s17.5-7.8,17.5-17.5S117.5,870.5,107.9,870.5z M1419.8,100.9
			c-12.9,0-23.3,10.4-23.3,23.3s10.4,23.3,23.3,23.3s23.3-10.4,23.3-23.3S1432.7,100.9,1419.8,100.9z M653.1,2549.8
			c-14.5,0-26.2,11.7-26.2,26.2c0,14.5,11.7,26.2,26.2,26.2c14.5,0,26.2-11.7,26.2-26.2C679.3,2561.6,667.6,2549.8,653.1,2549.8z
			 M2903.8,1972.6c-14.5,0-26.2,11.7-26.2,26.2c0,14.5,11.7,26.2,26.2,26.2s26.2-11.7,26.2-26.2
			C2930,1984.3,2918.3,1972.6,2903.8,1972.6z M1886.3,2917.2c-12.9,0-23.3,10.4-23.3,23.3c0,12.9,10.4,23.3,23.3,23.3
			c12.9,0,23.3-10.4,23.3-23.3C1909.6,2927.6,1899.2,2917.2,1886.3,2917.2z"/>
	</g>
	<g>
		<path class="st1" d="M2306.1,2579c-12.9,0-23.3,10.4-23.3,23.3c0,12.9,10.4,23.3,23.3,23.3c12.9,0,23.3-10.4,23.3-23.3
			C2329.4,2589.4,2319,2579,2306.1,2579z M2591.8,579c-12.9,0-23.3,10.4-23.3,23.3c0,12.9,10.4,23.3,23.3,23.3
			c12.9,0,23.3-10.4,23.3-23.3C2615.2,589.4,2604.7,579,2591.8,579z M314.9,1313.7c-14.5,0-26.2,11.7-26.2,26.2
			c0,14.5,11.7,26.2,26.2,26.2c14.5,0,26.2-11.7,26.2-26.2C341.1,1325.4,329.4,1313.7,314.9,1313.7z M107.9,870.5
			c-9.7,0-17.5,7.8-17.5,17.5s7.8,17.5,17.5,17.5s17.5-7.8,17.5-17.5S117.5,870.5,107.9,870.5z M1419.8,100.9
			c-12.9,0-23.3,10.4-23.3,23.3s10.4,23.3,23.3,23.3s23.3-10.4,23.3-23.3S1432.7,100.9,1419.8,100.9z M653.1,2549.8
			c-14.5,0-26.2,11.7-26.2,26.2c0,14.5,11.7,26.2,26.2,26.2c14.5,0,26.2-11.7,26.2-26.2C679.3,2561.6,667.6,2549.8,653.1,2549.8z
			 M2903.8,1972.6c-14.5,0-26.2,11.7-26.2,26.2c0,14.5,11.7,26.2,26.2,26.2s26.2-11.7,26.2-26.2
			C2930,1984.3,2918.3,1972.6,2903.8,1972.6z M1886.3,2917.2c-12.9,0-23.3,10.4-23.3,23.3c0,12.9,10.4,23.3,23.3,23.3
			c12.9,0,23.3-10.4,23.3-23.3C1909.6,2927.6,1899.2,2917.2,1886.3,2917.2z"/>
	</g>
</g>
<g id="Elipse_1">
	<g>
		<circle class="st2" cx="1524.8" cy="1541.1" r="1230.3"/>
	</g>
</g>
<g id="Elipse_6">
	<g>
		<circle class="st2" cx="1669.1" cy="1440.5" r="1330.9"/>
	</g>
</g>
<g id="Elipse_5">
	<g>
		<circle class="st2" cx="1432.9" cy="1458" r="1432.9"/>
	</g>
</g>
<g id="Elipse_4">
	<g>
		<circle class="st2" cx="1546.6" cy="1595" r="1380.5"/>
	</g>
</g>
<g id="Elipse_3">
	<g>
		<circle class="st2" cx="1653.1" cy="1593.6" r="1346.9"/>
	</g>
</g>
<g id="Elipse_2">
	<g>
		<circle class="st2" cx="1434.4" cy="1514.9" r="1320.7"/>
	</g>
</g>
</svg>
