<?xml version="1.0" encoding="utf-8"?>
<!-- Generator: Adobe Illustrator 26.0.0, SVG Export Plug-In . SVG Version: 6.00 Build 0)  -->
<svg version="1.1" xmlns="http://www.w3.org/2000/svg" xmlns:xlink="http://www.w3.org/1999/xlink" x="0px" y="0px"
	 viewBox="0 0 419.5 83.3" style="enable-background:new 0 0 419.5 83.3;" xml:space="preserve">
<g id="Capa_1_xA0_Imagen_00000112610471605802276510000012214192898598969216_">
	
		<image style="overflow:visible;" width="1748" height="347" id="Capa_1_xA0_Imagen" xlink:href="B39F9866.png"  transform="matrix(0.24 0 0 0.24 0 0)">
	</image>
</g>
<g id="Capa_4_xA0_Imagen_00000085955369008927470740000004649590484454655129_">
	
		<image style="overflow:visible;" width="55" height="48" id="Capa_4_xA0_Imagen" xlink:href="B39F986A.png"  transform="matrix(0.24 0 0 0.24 386.16 39.6)">
	</image>
</g>
<g id="Capa_12_xA0_Imagen_00000124856359660520486820000012255549381578410931_">
	
		<image style="overflow:visible;" width="60" height="52" id="Capa_12_xA0_Imagen" xlink:href="B39F986B.png"  transform="matrix(0.24 0 0 0.24 347.04 50.16)">
	</image>
</g>
<g id="Capa_13_xA0_Imagen_00000028303264462319415580000009850700024440933518_">
	
		<image style="overflow:visible;" width="45" height="39" id="Capa_13_xA0_Imagen" xlink:href="B39F986C.png"  transform="matrix(0.24 0 0 0.24 314.88 56.4)">
	</image>
</g>
<g id="Capa_14_xA0_Imagen_00000173851320157779590660000002600308570380757376_">
	
		<image style="overflow:visible;" width="64" height="49" id="Capa_14_xA0_Imagen" xlink:href="B39F986D.png"  transform="matrix(0.24 0 0 0.24 265.2 57.12)">
	</image>
</g>
<g id="Capa_15_xA0_Imagen_00000052064399327020365890000007105526463418605237_">
	
		<image style="overflow:visible;" width="40" height="48" id="Capa_15_xA0_Imagen" xlink:href="B39F9868.png"  transform="matrix(0.24 0 0 0.24 220.56 50.16)">
	</image>
</g>
<g id="Capa_16_xA0_Imagen_00000157298160763394510850000006208989625843045260_">
	
		<image style="overflow:visible;" width="42" height="39" id="Capa_16_xA0_Imagen" xlink:href="B39F9869.png"  transform="matrix(0.24 0 0 0.24 178.8 36)">
	</image>
</g>
<g id="Capa_5_xA0_Imagen_00000127760803785744356030000013321618249645199018_">
	
		<image style="overflow:visible;" width="35" height="26" id="Capa_5_xA0_Imagen" xlink:href="B39F9878.png"  transform="matrix(0.24 0 0 0.24 407.28 34.56)">
	</image>
</g>
<g id="Capa_6_xA0_Imagen_00000053509075588797764250000008112275946191715720_">
	
		<image style="overflow:visible;" width="25" height="37" id="Capa_6_xA0_Imagen" xlink:href="B39F9879.png"  transform="matrix(0.24 0 0 0.24 370.8 47.52)">
	</image>
</g>
<g id="Capa_7_xA0_Imagen_00000019665993300006772860000004721265404083297709_">
	
		<image style="overflow:visible;" width="35" height="22" id="Capa_7_xA0_Imagen" xlink:href="F611063E.png"  transform="matrix(0.24 0 0 0.24 334.08 61.2)">
	</image>
</g>
<g id="Capa_8_xA0_Imagen_00000170990687631058667140000013992586332380310666_">
	
		<image style="overflow:visible;" width="41" height="30" id="Capa_8_xA0_Imagen" xlink:href="F611063A.png"  transform="matrix(0.24 0 0 0.24 295.2 63.84)">
	</image>
</g>
<g id="Capa_9_xA0_Imagen_00000166674475789398210100000005461706611774161066_">
	
		<image style="overflow:visible;" width="40" height="30" id="Capa_9_xA0_Imagen" xlink:href="F6110639.png"  transform="matrix(0.24 0 0 0.24 240 53.52)">
	</image>
</g>
<g id="Capa_10_xA0_Imagen_00000065064349248778334970000014309891851103885187_">
	
		<image style="overflow:visible;" width="45" height="34" id="Capa_10_xA0_Imagen" xlink:href="F6110636.png"  transform="matrix(0.24 0 0 0.24 198.96 45.36)">
	</image>
</g>
<g id="Capa_11_xA0_Imagen_00000096738679699814688610000011032197780163729327_">
	
		<image style="overflow:visible;" width="25" height="37" id="Capa_11_xA0_Imagen" xlink:href="F6110629.png"  transform="matrix(0.24 0 0 0.24 162.72 28.08)">
	</image>
</g>
</svg>
